HIERARCHY
ROOT Hips
{
  OFFSET 5.80788e-005 67.184 3.4734
  CHANNELS 6 Xposition Yposition Zposition Zrotation Xrotation Yrotation
  JOINT Chest
  {
    OFFSET 0 8.7983 -4.7612
    CHANNELS 6 Xposition Yposition Zposition Zrotation Xrotation Yrotation
    JOINT Chest2
    {
      OFFSET 0 8.0291 0.4195
      CHANNELS 6 Xposition Yposition Zposition Zrotation Xrotation Yrotation
      JOINT Chest3
      {
        OFFSET 0 9.9351 -2.2114
        CHANNELS 6 Xposition Yposition Zposition Zrotation Xrotation Yrotation
        JOINT Neck
        {
          OFFSET 0 22.3885 -0.4656
          CHANNELS 6 Xposition Yposition Zposition Zrotation Xrotation Yrotation
          JOINT Head
          {
            OFFSET -0.0001 12.643 3.4389
            CHANNELS 6 Xposition Yposition Zposition Zrotation Xrotation Yrotation
            End Site
            {
              OFFSET 0.0001 17.6655 0.5274
            }
          }
        }
        JOINT LeftCollar
        {
          OFFSET 2.2603 21.606 7.4023
          CHANNELS 6 Xposition Yposition Zposition Zrotation Xrotation Yrotation
          JOINT LeftShoulder
          {
            OFFSET 13.5163 -1.1332 -5.0146
            CHANNELS 6 Xposition Yposition Zposition Zrotation Xrotation Yrotation
            JOINT LeftElbow
            {
              OFFSET -0.0995 -28.05 -0.2431
              CHANNELS 6 Xposition Yposition Zposition Zrotation Xrotation Yrotation
              JOINT LeftWrist
              {
                OFFSET 0.0679 -23.3996 -0.1402
                CHANNELS 6 Xposition Yposition Zposition Zrotation Xrotation Yrotation
                JOINT LeftFinger1
                {
                  OFFSET 0.7932 -9.069 2.5189
                  CHANNELS 6 Xposition Yposition Zposition Zrotation Xrotation Yrotation
                  JOINT LeftFinger11
                  {
                    OFFSET -0.8272 -3.3923 0.5977
                    CHANNELS 6 Xposition Yposition Zposition Zrotation Xrotation Yrotation
                    JOINT LeftFinger12
                    {
                      OFFSET -0.5649 -2.3158 0.4082
                      CHANNELS 6 Xposition Yposition Zposition Zrotation Xrotation Yrotation
                      End Site
                      {
                        OFFSET -0.4919 -1.6479 0.2673
                      }
                    }
                  }
                }
                JOINT LeftFinger2
                {
                  OFFSET 0.9159 -9.2044 0.2193
                  CHANNELS 6 Xposition Yposition Zposition Zrotation Xrotation Yrotation
                  JOINT LeftFinger21
                  {
                    OFFSET 0.0117 -4.1944 -0.0248
                    CHANNELS 6 Xposition Yposition Zposition Zrotation Xrotation Yrotation
                    JOINT LeftFinger22
                    {
                      OFFSET 0.0071 -2.3249 -0.0142
                      CHANNELS 6 Xposition Yposition Zposition Zrotation Xrotation Yrotation
                      End Site
                      {
                        OFFSET -0.1475 -2.0882 0.0028
                      }
                    }
                  }
                }
                JOINT LeftFinger3
                {
                  OFFSET 0.6113 -8.7231 -2.0637
                  CHANNELS 6 Xposition Yposition Zposition Zrotation Xrotation Yrotation
                  JOINT LeftFinger31
                  {
                    OFFSET -0.1927 -3.8059 -0.2383
                    CHANNELS 6 Xposition Yposition Zposition Zrotation Xrotation Yrotation
                    JOINT LeftFinger32
                    {
                      OFFSET -0.1091 -2.1688 -0.1362
                      CHANNELS 6 Xposition Yposition Zposition Zrotation Xrotation Yrotation
                      End Site
                      {
                        OFFSET -0.2358 -1.9176 -0.0906
                      }
                    }
                  }
                }
                JOINT LeftFinger4
                {
                  OFFSET -0.6151 -8.0947 -3.5641
                  CHANNELS 6 Xposition Yposition Zposition Zrotation Xrotation Yrotation
                  JOINT LeftFinger41
                  {
                    OFFSET -0.4882 -2.341 -0.6462
                    CHANNELS 6 Xposition Yposition Zposition Zrotation Xrotation Yrotation
                    JOINT LeftFinger42
                    {
                      OFFSET -0.3575 -1.7167 -0.4742
                      CHANNELS 6 Xposition Yposition Zposition Zrotation Xrotation Yrotation
                      End Site
                      {
                        OFFSET -0.4187 -1.5237 -0.3496
                      }
                    }
                  }
                }
                JOINT LeftFinger0
                {
                  OFFSET -1.42 -1.8761 1.4223
                  CHANNELS 6 Xposition Yposition Zposition Zrotation Xrotation Yrotation
                  JOINT LeftFinger01
                  {
                    OFFSET -1.1471 -3.4929 2.6334
                    CHANNELS 6 Xposition Yposition Zposition Zrotation Xrotation Yrotation
                    JOINT LeftFinger02
                    {
                      OFFSET -0.823 -2.3 1.6571
                      CHANNELS 6 Xposition Yposition Zposition Zrotation Xrotation Yrotation
                      End Site
                      {
                        OFFSET -0.5822 -1.6914 1.1582
                      }
                    }
                  }
                }
              }
            }
          }
        }
        JOINT RightCollar
        {
          OFFSET -2.2603 21.606 7.4023
          CHANNELS 6 Xposition Yposition Zposition Zrotation Xrotation Yrotation
          JOINT RightShoulder
          {
            OFFSET -13.5187 -1.1334 -5.0155
            CHANNELS 6 Xposition Yposition Zposition Zrotation Xrotation Yrotation
            JOINT RightElbow
            {
              OFFSET 0.0994 -28.0499 -0.2431
              CHANNELS 6 Xposition Yposition Zposition Zrotation Xrotation Yrotation
              JOINT RightWrist
              {
                OFFSET -0.0679 -23.3996 -0.1402
                CHANNELS 6 Xposition Yposition Zposition Zrotation Xrotation Yrotation
                JOINT RightFinger1
                {
                  OFFSET -0.7932 -9.0691 2.5189
                  CHANNELS 6 Xposition Yposition Zposition Zrotation Xrotation Yrotation
                  JOINT RightFinger11
                  {
                    OFFSET 0.8272 -3.3923 0.5977
                    CHANNELS 6 Xposition Yposition Zposition Zrotation Xrotation Yrotation
                    JOINT RightFinger12
                    {
                      OFFSET 0.565 -2.3158 0.4082
                      CHANNELS 6 Xposition Yposition Zposition Zrotation Xrotation Yrotation
                      End Site
                      {
                        OFFSET 0.4919 -1.6479 0.2673
                      }
                    }
                  }
                }
                JOINT RightFinger2
                {
                  OFFSET -0.916 -9.2044 0.2193
                  CHANNELS 6 Xposition Yposition Zposition Zrotation Xrotation Yrotation
                  JOINT RightFinger21
                  {
                    OFFSET -0.0117 -4.1944 -0.0248
                    CHANNELS 6 Xposition Yposition Zposition Zrotation Xrotation Yrotation
                    JOINT RightFinger22
                    {
                      OFFSET -0.0071 -2.3249 -0.0142
                      CHANNELS 6 Xposition Yposition Zposition Zrotation Xrotation Yrotation
                      End Site
                      {
                        OFFSET 0.1475 -2.0882 0.0028
                      }
                    }
                  }
                }
                JOINT RightFinger3
                {
                  OFFSET -0.6113 -8.7231 -2.0637
                  CHANNELS 6 Xposition Yposition Zposition Zrotation Xrotation Yrotation
                  JOINT RightFinger31
                  {
                    OFFSET 0.1927 -3.8059 -0.2383
                    CHANNELS 6 Xposition Yposition Zposition Zrotation Xrotation Yrotation
                    JOINT RightFinger32
                    {
                      OFFSET 0.1091 -2.1688 -0.1362
                      CHANNELS 6 Xposition Yposition Zposition Zrotation Xrotation Yrotation
                      End Site
                      {
                        OFFSET 0.2358 -1.9176 -0.0906
                      }
                    }
                  }
                }
                JOINT RightFinger4
                {
                  OFFSET 0.6151 -8.0947 -3.564
                  CHANNELS 6 Xposition Yposition Zposition Zrotation Xrotation Yrotation
                  JOINT RightFinger41
                  {
                    OFFSET 0.4882 -2.341 -0.6462
                    CHANNELS 6 Xposition Yposition Zposition Zrotation Xrotation Yrotation
                    JOINT RightFinger42
                    {
                      OFFSET 0.3574 -1.7166 -0.4742
                      CHANNELS 6 Xposition Yposition Zposition Zrotation Xrotation Yrotation
                      End Site
                      {
                        OFFSET 0.4187 -1.5237 -0.3496
                      }
                    }
                  }
                }
                JOINT RightFinger0
                {
                  OFFSET 1.4199 -1.8761 1.4221
                  CHANNELS 6 Xposition Yposition Zposition Zrotation Xrotation Yrotation
                  JOINT RightFinger01
                  {
                    OFFSET 1.1472 -3.4929 2.6336
                    CHANNELS 6 Xposition Yposition Zposition Zrotation Xrotation Yrotation
                    JOINT RightFinger02
                    {
                      OFFSET 0.8229 -2.3 1.6571
                      CHANNELS 6 Xposition Yposition Zposition Zrotation Xrotation Yrotation
                      End Site
                      {
                        OFFSET 0.5822 -1.6914 1.1582
                      }
                    }
                  }
                }
              }
            }
          }
        }
      }
    }
  }
  JOINT RightHip
  {
    OFFSET -9.412 3.9771 -0.7758
    CHANNELS 6 Xposition Yposition Zposition Zrotation Xrotation Yrotation
    JOINT RightKnee
    {
      OFFSET -0.7531 -40.938 0
      CHANNELS 6 Xposition Yposition Zposition Zrotation Xrotation Yrotation
      JOINT RightAnkle
      {
        OFFSET 0 -40.1986 0
        CHANNELS 6 Xposition Yposition Zposition Zrotation Xrotation Yrotation
        JOINT RightToe
        {
          OFFSET 0 -4.4182 9.239
          CHANNELS 6 Xposition Yposition Zposition Zrotation Xrotation Yrotation
          End Site
          {
            OFFSET 0 0 6.1981
          }
        }
      }
    }
  }
  JOINT LeftHip
  {
    OFFSET 9.4119 3.9773 -0.7758
    CHANNELS 6 Xposition Yposition Zposition Zrotation Xrotation Yrotation
    JOINT LeftKnee
    {
      OFFSET 0.7532 -40.9383 0
      CHANNELS 6 Xposition Yposition Zposition Zrotation Xrotation Yrotation
      JOINT LeftAnkle
      {
        OFFSET 0 -40.1986 0
        CHANNELS 6 Xposition Yposition Zposition Zrotation Xrotation Yrotation
        JOINT LeftToe
        {
          OFFSET 0 -4.4182 9.239
          CHANNELS 6 Xposition Yposition Zposition Zrotation Xrotation Yrotation
          End Site
          {
            OFFSET 0 0 6.1981
          }
        }
      }
    }
  }
}
MOTION
Frames:	4
Frame Time:	0.0333333
5.80788e-005 67.184 3.4734 0 0 -0 0 8.7983 -4.7612 0 0 -0 0 8.0291 0.4195 0 0 -0 0 9.9351 -2.2114 0 0 -0 0 22.3885 -0.4656 0 0 -0 -0.0001 12.643 3.4389 0.00553454 0 -0 2.2603 21.606 7.4023 0 0 -12.5014 13.5163 -1.1332 -5.0146 88.1196 14.2451 10.6914 -0.0995 -28.05 -0.2431 -0.00160068 -0.00239207 0.000740045 0.0679 -23.3996 -0.1402 -8.4365e-005 7.00714e-005 -9.52055e-007 0.7932 -9.069 2.5189 9.93923e-017 -1.98785e-016 -1.59028e-015 -0.8272 -3.3923 0.5977 9.93923e-017 -5.96354e-016 -1.59028e-015 -0.5649 -2.3158 0.4082 -9.93923e-017 -5.96354e-016 -1.59028e-015 0.9159 -9.2044 0.2193 9.93923e-017 -1.98785e-016 -1.59028e-015 0.0117 -4.1944 -0.0248 -0.0128176 0.00232552 8.52707e-005 0.0071 -2.3249 -0.0142 9.93923e-017 5.96354e-016 -0 0.6113 -8.7231 -2.0637 9.93923e-017 -1.98785e-016 -1.59028e-015 -0.1927 -3.8059 -0.2383 -0.0160551 0.00299681 0.000857156 -0.1091 -2.1688 -0.1362 -2.48481e-016 0 3.18055e-015 -0.6151 -8.0947 -3.5641 9.93923e-017 -1.98785e-016 -1.59028e-015 -0.4882 -2.341 -0.6462 -0.0125865 0.0031206 0.00282719 -0.3575 -1.7167 -0.4742 0 1.98785e-016 -0 -1.42 -1.8761 1.4223 9.93923e-017 -1.98785e-016 -1.59028e-015 -1.1471 -3.4929 2.6334 9.93923e-017 -5.96354e-016 -1.59028e-015 -0.823 -2.3 1.6571 -9.93923e-017 -5.96354e-016 -1.59028e-015 -2.2603 21.606 7.4023 -0.865644 0.16582 7.03859 -13.5187 -1.1334 -5.0155 -88.0329 10.2057 -10.5567 0.0994 -28.0499 -0.2431 0.0015593 -0.00248883 -0.000788628 -0.0679 -23.3996 -0.1402 7.87605e-005 4.10553e-005 1.24965e-005 -0.7932 -9.0691 2.5189 -3.97569e-016 -7.95139e-016 3.18055e-015 0.8272 -3.3923 0.5977 -1.98785e-016 -3.97569e-016 3.18055e-015 0.565 -2.3158 0.4082 -1.98785e-016 0 3.18055e-015 -0.916 -9.2044 0.2193 -3.97569e-016 -7.95139e-016 3.18055e-015 -0.0117 -4.1944 -0.0248 0.0129473 0.00231697 -8.70038e-005 -0.0071 -2.3249 -0.0142 9.93923e-017 -7.95139e-016 1.59028e-015 -0.6113 -8.7231 -2.0637 -3.97569e-016 -7.95139e-016 3.18055e-015 0.1927 -3.8059 -0.2383 0.0163314 0.00303369 -0.000872333 0.1091 -2.1688 -0.1362 3.97569e-016 7.95139e-016 -3.18055e-015 0.6151 -8.0947 -3.564 -3.97569e-016 -7.95139e-016 3.18055e-015 0.4882 -2.341 -0.6462 0.0145763 0.00367772 -0.00326275 0.3574 -1.7166 -0.4742 9.93923e-017 -3.97569e-016 -0 1.4199 -1.8761 1.4221 -3.97569e-016 -7.95139e-016 3.18055e-015 1.1472 -3.4929 2.6336 -1.98785e-016 -3.97569e-016 3.18055e-015 0.8229 -2.3 1.6571 -1.98785e-016 0 3.18055e-015 -9.412 3.9771 -0.7758 3.42485 1.36937 -0.0640303 -0.7531 -40.938 0 0.000136572 0.69354 0.00145564 1.77636e-015 -40.1986 -1.11022e-016 -3.42573 -2.06297 -0.0607933 8.88178e-016 -4.4182 9.239 -3.19502e-024 0 -1.48106e-024 9.4119 3.9773 -0.7758 -3.42498 1.36123 0.0639712 0.7532 -40.9383 2.22045e-016 -6.769e-005 0.712612 -0.0012277 8.88179e-016 -40.1986 0 3.42582 -2.07388 0.0612819 -8.88178e-016 -4.4182 9.239 2.55305e-023 0 -2.31416e-026 
-0.0468802 -7.52199 -54.8186 -0 -63.0022 -0 0 8.7983 -4.7612 0 2.79923 -0 0 8.0291 0.4195 0 5.59847 -0 0 9.9351 -2.2114 0 5.59844 -0 0 22.3885 -0.4656 0 30.9991 -0 -0.0001 12.643 3.4389 0.00636394 0.274522 -0.173106 2.2603 21.606 7.4023 8.69232e-007 2.24996e-005 -12.5014 13.5163 -1.1332 -5.0146 -0.307117 43.9481 29.0476 -0.0995 -28.05 -0.2431 -52.0537 -75.1813 -44.3175 0.0679 -23.3996 -0.1402 -12.7847 2.34464 -0.135527 0.7932 -9.069 2.5189 8.43647e-007 1.31248e-005 2.43701e-007 -0.8272 -3.3923 0.5977 -3.23259e-006 7.55359e-006 3.21508e-006 -0.5649 -2.3158 0.4082 -2.98859e-006 7.09617e-008 2.8238e-006 0.9159 -9.2044 0.2193 8.43647e-007 1.31248e-005 2.43701e-007 0.0117 -4.1944 -0.0248 -0.0128103 0.00233547 0.000100087 0.0071 -2.3249 -0.0142 -4.68891e-006 1.38787e-008 -1.36929e-007 0.6113 -8.7231 -2.0637 8.43647e-007 1.31248e-005 2.43701e-007 -0.1927 -3.8059 -0.2383 -0.0160039 0.0029987 0.000868096 -0.1091 -2.1688 -0.1362 -2.24787e-006 -1.25179e-005 -1.72358e-006 -0.6151 -8.0947 -3.5641 8.43647e-007 1.31248e-005 2.43701e-007 -0.4882 -2.341 -0.6462 -0.012546 0.00311623 0.00283205 -0.3575 -1.7167 -0.4742 -2.31897e-006 2.6201e-007 2.50103e-006 -1.42 -1.8761 1.4223 8.43647e-007 1.31248e-005 2.43701e-007 -1.1471 -3.4929 2.6334 -3.23259e-006 7.55359e-006 3.21508e-006 -0.823 -2.3 1.6571 -2.98859e-006 7.09617e-008 2.8238e-006 -2.2603 21.606 7.4023 -0.881382 -0.00236614 18.0369 -13.5187 -1.1334 -5.0155 -8.17718 -18.021 12.2515 0.0994 -28.0499 -0.2431 8.36057 -16.6634 3.62114 -0.0679 -23.3996 -0.1402 41.3597 7.74289 16.5997 -0.7932 -9.0691 2.5189 1.1559e-005 -4.56452e-006 6.64735e-006 0.8272 -3.3923 0.5977 9.54166e-015 4.77083e-015 -7.95139e-016 0.565 -2.3158 0.4082 6.36111e-015 0 -7.95139e-016 -0.916 -9.2044 0.2193 1.1559e-005 -4.56452e-006 6.64735e-006 -0.0117 -4.1944 -0.0248 0.0129615 0.00233134 -8.10125e-005 -0.0071 -2.3249 -0.0142 6.36111e-015 1.35174e-014 5.56597e-015 -0.6113 -8.7231 -2.0637 1.1559e-005 -4.56452e-006 6.64735e-006 0.1927 -3.8059 -0.2383 0.0163695 0.00304251 -0.000875984 0.1091 -2.1688 -0.1362 -0 0 7.95139e-016 0.6151 -8.0947 -3.564 1.1559e-005 -4.56452e-006 6.64735e-006 0.4882 -2.341 -0.6462 0.0145786 0.00368044 -0.00326705 0.3574 -1.7166 -0.4742 -1.59028e-014 7.95139e-015 4.77083e-015 1.4199 -1.8761 1.4221 1.1559e-005 -4.56452e-006 6.64735e-006 1.1472 -3.4929 2.6336 9.54166e-015 4.77083e-015 -7.95139e-016 0.8229 -2.3 1.6571 6.36111e-015 0 -7.95139e-016 -9.412 3.9771 -0.7758 -63.7252 -35.6792 -86.1236 -0.7531 -40.938 7.10543e-015 0.0236455 76.3327 -1.79882 0 -40.1986 -7.10543e-015 -2.81984 15.4587 -0.799539 0 -4.4182 9.239 1.80275e-005 -1.69243e-005 5.60276e-006 9.4119 3.9773 -0.7758 56.4273 -41.4171 78.6884 0.7532 -40.9383 0 -0.0257703 75.9944 1.67582 -7.10543e-015 -40.1986 0 1.88717 9.73825 1.06967 -3.55271e-015 -4.4182 9.239 1.59028e-015 0 -3.18055e-015 
-0.0468949 -7.5217 -54.8186 -0 -63.0022 -0 0 8.7983 -4.7612 0 2.79923 -0 0 8.0291 0.4195 0 5.59847 -0 0 9.9351 -2.2114 0 5.59843 -0 0 22.3885 -0.4656 0 30.9992 -0 -0.0001 12.643 3.4389 0.00322398 -0.779373 -0.169865 2.2603 21.606 7.4023 9.8371e-007 1.02899e-005 -12.5014 13.5163 -1.1332 -5.0146 -0.307141 43.9481 29.0476 -0.0995 -28.05 -0.2431 -52.0537 -75.1813 -44.3175 0.0679 -23.3996 -0.1402 -12.7847 2.34462 -0.135533 0.7932 -9.069 2.5189 1.06257e-006 1.36453e-005 9.78791e-008 -0.8272 -3.3923 0.5977 -2.37788e-006 1.61976e-007 -2.5315e-006 -0.5649 -2.3158 0.4082 -7.68536e-006 7.55425e-007 2.79346e-006 0.9159 -9.2044 0.2193 1.06257e-006 1.36453e-005 9.78791e-008 0.0117 -4.1944 -0.0248 -0.0128012 0.00231474 9.48358e-005 0.0071 -2.3249 -0.0142 -5.13951e-006 2.52519e-007 1.13619e-007 0.6113 -8.7231 -2.0637 1.06257e-006 1.36453e-005 9.78791e-008 -0.1927 -3.8059 -0.2383 -0.0160468 0.00298126 0.000852764 -0.1091 -2.1688 -0.1362 -4.06303e-006 2.06375e-005 1.7868e-007 -0.6151 -8.0947 -3.5641 1.06257e-006 1.36453e-005 9.78791e-008 -0.4882 -2.341 -0.6462 -0.012582 0.00311129 0.00281868 -0.3575 -1.7167 -0.4742 -4.70685e-006 5.06105e-007 3.92569e-008 -1.42 -1.8761 1.4223 1.06257e-006 1.36453e-005 9.78791e-008 -1.1471 -3.4929 2.6334 -2.37788e-006 1.61976e-007 -2.5315e-006 -0.823 -2.3 1.6571 -7.68536e-006 7.55425e-007 2.79346e-006 -2.2603 21.606 7.4023 -0.881383 -0.00235511 18.0369 -13.5187 -1.1334 -5.0155 -8.17737 -18.0211 12.2514 0.0994 -28.0499 -0.2431 8.47306 -17.1486 3.7059 -0.0679 -23.3996 -0.1402 41.1272 7.77943 16.7593 -0.7932 -9.0691 2.5189 -6.36111e-015 1.27222e-014 4.77083e-015 0.8272 -3.3923 0.5977 -1.59028e-014 7.15625e-015 7.95139e-016 0.565 -2.3158 0.4082 -9.54166e-015 8.74653e-015 3.97569e-015 -0.916 -9.2044 0.2193 -6.36111e-015 1.27222e-014 4.77083e-015 -0.0117 -4.1944 -0.0248 0.0129815 0.00232528 -8.04795e-005 -0.0071 -2.3249 -0.0142 -3.6747e-006 -6.48433e-006 -3.77654e-006 -0.6113 -8.7231 -2.0637 -6.36111e-015 1.27222e-014 4.77083e-015 0.1927 -3.8059 -0.2383 0.0163169 0.00304932 -0.000874517 0.1091 -2.1688 -0.1362 1.37645e-006 -1.04712e-005 1.87826e-006 0.6151 -8.0947 -3.564 -6.36111e-015 1.27222e-014 4.77083e-015 0.4882 -2.341 -0.6462 0.0146235 0.00370052 -0.00328311 0.3574 -1.7166 -0.4742 9.54166e-015 6.36111e-015 2.38542e-015 1.4199 -1.8761 1.4221 -6.36111e-015 1.27222e-014 4.77083e-015 1.1472 -3.4929 2.6336 -1.59028e-014 7.15625e-015 7.95139e-016 0.8229 -2.3 1.6571 -9.54166e-015 8.74653e-015 3.97569e-015 -9.412 3.9771 -0.7758 -63.7233 -35.6968 -86.1387 -0.7531 -40.938 0 0.0280946 76.3157 -2.37583 -3.55271e-015 -40.1986 0 -2.78391 15.4443 -0.808991 3.55271e-015 -4.4182 9.239 3.23274e-006 -5.49948e-006 5.19224e-006 9.4119 3.9773 -0.7758 56.4209 -41.4319 78.6984 0.7532 -40.9383 0 -0.0297567 75.9762 2.25223 0 -40.1986 0 1.85299 9.72327 1.07688 0 -4.4182 9.239 -6.36111e-015 9.54166e-015 -1.59028e-015 
-0.0469089 -7.52141 -54.8186 -0 -63.0022 -0 0 8.7983 -4.7612 0 2.79923 -0 0 8.0291 0.4195 0 5.59847 -0 0 9.9351 -2.2114 0 5.59843 -0 0 22.3885 -0.4656 0 30.9992 -0 -0.0001 12.643 3.4389 0.000190983 -1.83761 -0.166638 2.2603 21.606 7.4023 9.8371e-007 1.02899e-005 -12.5014 13.5163 -1.1332 -5.0146 -0.307141 43.9481 29.0476 -0.0995 -28.05 -0.2431 -52.0537 -75.1813 -44.3175 0.0679 -23.3996 -0.1402 -12.7847 2.34462 -0.135533 0.7932 -9.069 2.5189 1.06257e-006 1.36453e-005 9.78791e-008 -0.8272 -3.3923 0.5977 -2.37788e-006 1.61976e-007 -2.5315e-006 -0.5649 -2.3158 0.4082 -7.68536e-006 7.55425e-007 2.79346e-006 0.9159 -9.2044 0.2193 1.06257e-006 1.36453e-005 9.78791e-008 0.0117 -4.1944 -0.0248 -0.0128393 0.00232325 8.47088e-005 0.0071 -2.3249 -0.0142 -3.82663e-006 1.38297e-005 -1.06006e-007 0.6113 -8.7231 -2.0637 1.06257e-006 1.36453e-005 9.78791e-008 -0.1927 -3.8059 -0.2383 -0.0160468 0.00298126 0.000852764 -0.1091 -2.1688 -0.1362 -4.06303e-006 2.06375e-005 1.7868e-007 -0.6151 -8.0947 -3.5641 1.06257e-006 1.36453e-005 9.78791e-008 -0.4882 -2.341 -0.6462 -0.012582 0.00311129 0.00281868 -0.3575 -1.7167 -0.4742 -4.70685e-006 5.06105e-007 3.92569e-008 -1.42 -1.8761 1.4223 1.06257e-006 1.36453e-005 9.78791e-008 -1.1471 -3.4929 2.6334 -2.37788e-006 1.61976e-007 -2.5315e-006 -0.823 -2.3 1.6571 -7.68536e-006 7.55425e-007 2.79346e-006 -2.2603 21.606 7.4023 -0.881383 -0.00235511 18.0369 -13.5187 -1.1334 -5.0155 -8.17739 -18.0211 12.2514 0.0994 -28.0499 -0.2431 8.5865 -17.6338 3.79192 -0.0679 -23.3996 -0.1402 40.8945 7.81532 16.919 -0.7932 -9.0691 2.5189 -9.54166e-015 7.95139e-016 -0 0.8272 -3.3923 0.5977 9.20615e-006 -2.06118e-006 5.87307e-006 0.565 -2.3158 0.4082 -6.64359e-006 2.40247e-006 -5.80503e-006 -0.916 -9.2044 0.2193 -9.54166e-015 7.95139e-016 -0 -0.0117 -4.1944 -0.0248 0.0129789 0.00232388 -8.64212e-005 -0.0071 -2.3249 -0.0142 9.4832e-007 -6.13755e-006 4.35426e-006 -0.6113 -8.7231 -2.0637 -9.54166e-015 7.95139e-016 -0 0.1927 -3.8059 -0.2383 0.0163012 0.00302269 -0.000878961 0.1091 -2.1688 -0.1362 4.46924e-006 -2.20908e-006 9.78455e-006 0.6151 -8.0947 -3.564 -9.54166e-015 7.95139e-016 -0 0.4882 -2.341 -0.6462 0.014592 0.00368115 -0.00327704 0.3574 -1.7166 -0.4742 8.79309e-006 1.58164e-006 8.3151e-006 1.4199 -1.8761 1.4221 -9.54166e-015 7.95139e-016 -0 1.1472 -3.4929 2.6336 9.20615e-006 -2.06118e-006 5.87307e-006 0.8229 -2.3 1.6571 -6.64359e-006 2.40247e-006 -5.80503e-006 -9.412 3.9771 -0.7758 -63.72 -35.7158 -86.1531 -0.7531 -40.938 1.42109e-014 0.0308239 76.2972 -2.95282 -3.55271e-015 -40.1986 -3.55271e-015 -2.748 15.4305 -0.818394 0 -4.4182 9.239 -6.31733e-006 1.26941e-007 -1.73174e-006 9.4119 3.9773 -0.7758 56.4036 -41.4561 78.7013 0.7532 -40.9383 0 -0.0226524 75.9513 2.82855 0 -40.1986 3.55271e-015 1.81882 9.7089 1.08409 0 -4.4182 9.239 1.96971e-006 -1.51083e-006 1.5366e-006 
